  0
SECTION
  2
HEADER
  9
$ACADVER
  1
AC1009
  9
$DWGCODEPAGE
  3
ansi_1252
  9
$INSBASE
 10
0.0
 20
0.0
 30
0.0
  9
$EXTMIN
 10
0.0
 20
0.0
 30
0.0
  9
$EXTMAX
 10
120.0
 20
80.17543500337464
 30
0.0
  9
$LIMMIN
 10
0.0
 20
0.0
  9
$LIMMAX
 10
12.0
 20
9.0
  9
$ORTHOMODE
 70
     0
  9
$REGENMODE
 70
     1
  9
$FILLMODE
 70
     1
  9
$QTEXTMODE
 70
     0
  9
$MIRRTEXT
 70
     1
  9
$DRAGMODE
 70
     2
  9
$LTSCALE
 40
1.0
  9
$OSMODE
 70
    37
  9
$ATTMODE
 70
     1
  9
$TEXTSIZE
 40
0.2
  9
$TRACEWID
 40
0.05
  9
$TEXTSTYLE
  7
STANDARD
  9
$CLAYER
  8
DEFAULT
  9
$CELTYPE
  6
BYLAYER
  9
$CECOLOR
 62
   256
  9
$DIMSCALE
 40
1.0
  9
$DIMASZ
 40
0.18
  9
$DIMEXO
 40
0.0625
  9
$DIMDLI
 40
0.38
  9
$DIMRND
 40
0.0
  9
$DIMDLE
 40
0.0
  9
$DIMEXE
 40
0.18
  9
$DIMTP
 40
0.0
  9
$DIMTM
 40
0.0
  9
$DIMTXT
 40
0.18
  9
$DIMCEN
 40
0.09
  9
$DIMTSZ
 40
0.0
  9
$DIMTOL
 70
     0
  9
$DIMLIM
 70
     0
  9
$DIMTIH
 70
     1
  9
$DIMTOH
 70
     1
  9
$DIMSE1
 70
     0
  9
$DIMSE2
 70
     0
  9
$DIMTAD
 70
     0
  9
$DIMZIN
 70
     0
  9
$DIMBLK
  1

  9
$DIMASO
 70
     1
  9
$DIMSHO
 70
     1
  9
$DIMPOST
  1

  9
$DIMAPOST
  1

  9
$DIMALT
 70
     0
  9
$DIMALTD
 70
     2
  9
$DIMALTF
 40
25.4
  9
$DIMLFAC
 40
1.0
  9
$DIMTOFL
 70
     0
  9
$DIMTVP
 40
0.0
  9
$DIMTIX
 70
     0
  9
$DIMSOXD
 70
     0
  9
$DIMSAH
 70
     0
  9
$DIMBLK1
  1

  9
$DIMBLK2
  1

  9
$DIMSTYLE
  2
STANDARD
  9
$DIMCLRD
 70
     0
  9
$DIMCLRE
 70
     0
  9
$DIMCLRT
 70
     0
  9
$DIMTFAC
 40
1.0
  9
$DIMGAP
 40
0.09
  9
$LUNITS
 70
     2
  9
$LUPREC
 70
     2
  9
$SKETCHINC
 40
0.1
  9
$FILLETRAD
 40
0.5
  9
$AUNITS
 70
     0
  9
$AUPREC
 70
     0
  9
$MENU
  1
.
  9
$ELEVATION
 40
0.0
  9
$PELEVATION
 40
0.0
  9
$THICKNESS
 40
0.0
  9
$LIMCHECK
 70
     0
  9
$CHAMFERA
 40
0.0
  9
$CHAMFERB
 40
0.0
  9
$SKPOLY
 70
     0
  9
$TDCREATE
 40
2457165.708532824
  9
$TDUPDATE
 40
2457165.708549977
  9
$TDINDWG
 40
0.0000000116
  9
$TDUSRTIMER
 40
0.0000000116
  9
$USRTIMER
 70
     1
  9
$ANGBASE
 50
0.0
  9
$ANGDIR
 70
     0
  9
$PDMODE
 70
     0
  9
$PDSIZE
 40
0.0
  9
$PLINEWID
 40
0.0
  9
$COORDS
 70
     1
  9
$SPLFRAME
 70
     0
  9
$SPLINETYPE
 70
     6
  9
$SPLINESEGS
 70
     8
  9
$ATTDIA
 70
     0
  9
$ATTREQ
 70
     1
  9
$HANDLING
 70
     1
  9
$HANDSEED
  5
F6
  9
$SURFTAB1
 70
     6
  9
$SURFTAB2
 70
     6
  9
$SURFTYPE
 70
     6
  9
$SURFU
 70
     6
  9
$SURFV
 70
     6
  9
$UCSNAME
  2

  9
$UCSORG
 10
0.0
 20
0.0
 30
0.0
  9
$UCSXDIR
 10
1.0
 20
0.0
 30
0.0
  9
$UCSYDIR
 10
0.0
 20
1.0
 30
0.0
  9
$PUCSNAME
  2

  9
$PUCSORG
 10
0.0
 20
0.0
 30
0.0
  9
$PUCSXDIR
 10
1.0
 20
0.0
 30
0.0
  9
$PUCSYDIR
 10
0.0
 20
1.0
 30
0.0
  9
$USERI1
 70
     0
  9
$USERI2
 70
     0
  9
$USERI3
 70
     0
  9
$USERI4
 70
     0
  9
$USERI5
 70
     0
  9
$USERR1
 40
0.0
  9
$USERR2
 40
0.0
  9
$USERR3
 40
0.0
  9
$USERR4
 40
0.0
  9
$USERR5
 40
0.0
  9
$WORLDVIEW
 70
     1
  9
$SHADEDGE
 70
     3
  9
$SHADEDIF
 70
    70
  9
$TILEMODE
 70
     1
  9
$MAXACTVP
 70
    64
  9
$PLIMCHECK
 70
     0
  9
$PEXTMIN
 10
1.000000000000000E+20
 20
1.000000000000000E+20
 30
1.000000000000000E+20
  9
$PEXTMAX
 10
-1.000000000000000E+20
 20
-1.000000000000000E+20
 30
-1.000000000000000E+20
  9
$PLIMMIN
 10
0.0
 20
0.0
  9
$PLIMMAX
 10
12.0
 20
9.0
  9
$UNITMODE
 70
     0
  9
$VISRETAIN
 70
     1
  9
$PLINEGEN
 70
     0
  9
$PSLTSCALE
 70
     1
  0
ENDSEC
  0
SECTION
  2
TABLES
  0
TABLE
  2
VPORT
 70
     1
  0
VPORT
  2
*ACTIVE
 70
     0
 10
0.0
 20
0.0
 11
1.0
 21
1.0
 12
60.0
 22
40.08771750168732
 13
0.0
 23
0.0
 14
0.5
 24
0.5
 15
0.5
 25
0.5
 16
0.0
 26
0.0
 36
1.0
 17
0.0
 27
0.0
 37
0.0
 40
81.77894370344214
 41
1.496717791365262
 42
50.0
 43
0.0
 44
0.0
 50
0.0
 51
0.0
 71
     0
 72
   100
 73
     1
 74
     3
 75
     0
 76
     0
 77
     0
 78
     0
  0
ENDTAB
  0
TABLE
  2
LTYPE
 70
     1
  0
LTYPE
  2
CONTINUOUS
 70
     0
  3
Solid line
 72
    65
 73
     0
 40
0.0
  0
ENDTAB
  0
TABLE
  2
LAYER
 70
     2
  0
LAYER
  2
0
 70
     0
 62
     7
  6
CONTINUOUS
  0
LAYER
  2
DEFAULT
 70
     0
 62
     7
  6
CONTINUOUS
  0
ENDTAB
  0
TABLE
  2
STYLE
 70
     1
  0
STYLE
  2
STANDARD
 70
     0
 40
0.0
 41
1.0
 50
0.0
 71
     0
 42
0.2
  3
txt
  4

  0
ENDTAB
  0
TABLE
  2
VIEW
 70
     0
  0
ENDTAB
  0
TABLE
  2
UCS
 70
     0
  0
ENDTAB
  0
TABLE
  2
APPID
 70
     1
  0
APPID
  2
ACAD
 70
     0
  0
ENDTAB
  0
TABLE
  2
DIMSTYLE
 70
     1
  0
DIMSTYLE
  2
STANDARD
 70
     0
  3

  4

  5

  6

  7

 40
1.0
 41
0.18
 42
0.0625
 43
0.38
 44
0.18
 45
0.0
 46
0.0
 47
0.0
 48
0.0
140
0.18
141
0.09
142
0.0
143
25.4
144
1.0
145
0.0
146
1.0
147
0.09
 71
     0
 72
     0
 73
     1
 74
     1
 75
     0
 76
     0
 77
     0
 78
     0
170
     0
171
     2
172
     0
173
     0
174
     0
175
     0
176
     0
177
     0
178
     0
  0
ENDTAB
  0
ENDSEC
  0
SECTION
  2
BLOCKS
  0
BLOCK
  8
0
  2
$MODEL_SPACE
 70
     0
 10
0.0
 20
0.0
 30
0.0
  3
$MODEL_SPACE
  1

  0
ENDBLK
  5
21
  8
0
  0
BLOCK
 67
     1
  8
0
  2
$PAPER_SPACE
 70
     0
 10
0.0
 20
0.0
 30
0.0
  3
$PAPER_SPACE
  1

  0
ENDBLK
  5
1D
 67
     1
  8
0
  0
ENDSEC
  0
SECTION
  2
ENTITIES
  0
CIRCLE
  5
6B
  8
DEFAULT
 10
64.53432209208056
 20
60.2421763975895
 30
0.0
 40
4.900000000000006
  0
CIRCLE
  5
6C
  8
DEFAULT
 10
64.53432209208056
 20
60.24217639758952
 30
0.0
 40
3.900000000000006
  0
CIRCLE
  5
6D
  8
DEFAULT
 10
92.11301625284364
 20
70.803455373924
 30
0.0
 40
3.900000000000006
  0
CIRCLE
  5
6E
  8
DEFAULT
 10
92.11301625284364
 20
70.80345537392397
 30
0.0
 40
6.399999999999991
  0
CIRCLE
  5
6F
  8
DEFAULT
 10
110.1840047905869
 20
70.80345537392397
 30
0.0
 40
6.400000000000006
  0
CIRCLE
  5
70
  8
DEFAULT
 10
110.1840047905869
 20
70.80345537392398
 30
0.0
 40
3.900000000000006
  0
CIRCLE
  5
71
  8
DEFAULT
 10
74.0420277151004
 20
70.80345537392397
 30
0.0
 40
6.400000000000006
  0
CIRCLE
  5
72
  8
DEFAULT
 10
74.0420277151004
 20
70.80345537392398
 30
0.0
 40
3.900000000000006
  0
CIRCLE
  5
73
  8
DEFAULT
 10
110.1840047905869
 20
70.80345537392397
 30
0.0
 40
6.399999999999991
  0
CIRCLE
  5
74
  8
DEFAULT
 10
110.1840047905869
 20
70.80345537392398
 30
0.0
 40
8.900000000000006
  0
CIRCLE
  5
75
  8
DEFAULT
 10
92.11301625284364
 20
70.80345537392397
 30
0.0
 40
6.399999999999991
  0
CIRCLE
  5
76
  8
DEFAULT
 10
92.11301625284364
 20
70.80345537392398
 30
0.0
 40
8.900000000000006
  0
CIRCLE
  5
77
  8
DEFAULT
 10
74.0420277151004
 20
70.80345537392398
 30
0.0
 40
8.900000000000006
  0
CIRCLE
  5
78
  8
DEFAULT
 10
74.0420277151004
 20
70.80345537392397
 30
0.0
 40
6.399999999999991
  0
CIRCLE
  5
79
  8
DEFAULT
 10
109.926782748012
 20
49.77012779269163
 30
0.0
 40
6.400000000000006
  0
CIRCLE
  5
7A
  8
DEFAULT
 10
109.926782748012
 20
49.77012779269163
 30
0.0
 40
3.900000000000006
  0
CIRCLE
  5
7B
  8
DEFAULT
 10
91.85579421026878
 20
49.77012779269163
 30
0.0
 40
6.400000000000006
  0
CIRCLE
  5
7C
  8
DEFAULT
 10
91.85579421026878
 20
49.77012779269163
 30
0.0
 40
3.900000000000006
  0
CIRCLE
  5
7D
  8
DEFAULT
 10
73.78480567252555
 20
49.77012779269163
 30
0.0
 40
6.400000000000006
  0
CIRCLE
  5
7E
  8
DEFAULT
 10
73.78480567252555
 20
49.77012779269163
 30
0.0
 40
3.900000000000006
  0
CIRCLE
  5
7F
  8
DEFAULT
 10
109.926782748012
 20
49.7701277926916
 30
0.0
 40
6.399999999999991
  0
CIRCLE
  5
80
  8
DEFAULT
 10
109.926782748012
 20
49.77012779269163
 30
0.0
 40
8.900000000000006
  0
CIRCLE
  5
81
  8
DEFAULT
 10
91.85579421026878
 20
49.7701277926916
 30
0.0
 40
6.399999999999991
  0
CIRCLE
  5
82
  8
DEFAULT
 10
91.85579421026878
 20
49.77012779269163
 30
0.0
 40
8.900000000000006
  0
CIRCLE
  5
83
  8
DEFAULT
 10
73.78480567252555
 20
49.77012779269163
 30
0.0
 40
8.900000000000006
  0
CIRCLE
  5
84
  8
DEFAULT
 10
73.78480567252555
 20
49.7701277926916
 30
0.0
 40
6.399999999999991
  0
CIRCLE
  5
85
  8
DEFAULT
 10
61.1474703837327
 20
18.93484609109737
 30
0.0
 40
6.400000000000006
  0
CIRCLE
  5
86
  8
DEFAULT
 10
61.1474703837327
 20
18.9348460910974
 30
0.0
 40
3.900000000000006
  0
CIRCLE
  5
87
  8
DEFAULT
 10
110.4980885073534
 20
9.418419201614824
 30
0.0
 40
6.400000000000006
  0
CIRCLE
  5
88
  8
DEFAULT
 10
110.4980885073534
 20
9.418419201614824
 30
0.0
 40
3.900000000000006
  0
CIRCLE
  5
89
  8
DEFAULT
 10
92.42709996961017
 20
9.418419201614824
 30
0.0
 40
6.400000000000006
  0
CIRCLE
  5
8A
  8
DEFAULT
 10
92.42709996961017
 20
9.418419201614824
 30
0.0
 40
3.900000000000006
  0
CIRCLE
  5
8B
  8
DEFAULT
 10
74.35611143186694
 20
9.418419201614824
 30
0.0
 40
6.400000000000006
  0
CIRCLE
  5
8C
  8
DEFAULT
 10
74.35611143186694
 20
9.418419201614824
 30
0.0
 40
3.900000000000006
  0
CIRCLE
  5
8D
  8
DEFAULT
 10
110.4980885073534
 20
9.418419201614796
 30
0.0
 40
6.399999999999991
  0
CIRCLE
  5
8E
  8
DEFAULT
 10
110.4980885073534
 20
9.418419201614824
 30
0.0
 40
8.900000000000006
  0
CIRCLE
  5
8F
  8
DEFAULT
 10
92.42709996961017
 20
9.418419201614796
 30
0.0
 40
6.399999999999991
  0
CIRCLE
  5
90
  8
DEFAULT
 10
92.42709996961017
 20
9.418419201614824
 30
0.0
 40
8.900000000000006
  0
CIRCLE
  5
91
  8
DEFAULT
 10
74.35611143186694
 20
9.418419201614824
 30
0.0
 40
8.900000000000006
  0
CIRCLE
  5
92
  8
DEFAULT
 10
74.35611143186694
 20
9.418419201614796
 30
0.0
 40
6.399999999999991
  0
CIRCLE
  5
93
  8
DEFAULT
 10
90.37548868545156
 20
30.80345537392401
 30
0.0
 40
3.900000000000006
  0
CIRCLE
  5
94
  8
DEFAULT
 10
90.37548868545156
 20
30.80345537392398
 30
0.0
 40
6.399999999999991
  0
CIRCLE
  5
95
  8
DEFAULT
 10
108.4464772231948
 20
30.80345537392398
 30
0.0
 40
6.400000000000006
  0
CIRCLE
  5
96
  8
DEFAULT
 10
108.4464772231948
 20
30.80345537392401
 30
0.0
 40
3.900000000000006
  0
CIRCLE
  5
97
  8
DEFAULT
 10
72.30450014770832
 20
30.80345537392398
 30
0.0
 40
6.400000000000006
  0
CIRCLE
  5
98
  8
DEFAULT
 10
72.30450014770832
 20
30.80345537392401
 30
0.0
 40
3.900000000000006
  0
CIRCLE
  5
99
  8
DEFAULT
 10
108.4464772231948
 20
30.80345537392398
 30
0.0
 40
6.399999999999991
  0
CIRCLE
  5
9A
  8
DEFAULT
 10
108.4464772231948
 20
30.80345537392398
 30
0.0
 40
8.900000000000006
  0
CIRCLE
  5
9B
  8
DEFAULT
 10
90.37548868545156
 20
30.80345537392398
 30
0.0
 40
6.399999999999991
  0
CIRCLE
  5
9C
  8
DEFAULT
 10
90.37548868545156
 20
30.80345537392398
 30
0.0
 40
8.900000000000006
  0
CIRCLE
  5
9D
  8
DEFAULT
 10
72.30450014770832
 20
30.80345537392398
 30
0.0
 40
8.900000000000006
  0
CIRCLE
  5
9E
  8
DEFAULT
 10
72.30450014770832
 20
30.80345537392398
 30
0.0
 40
6.399999999999991
  0
CIRCLE
  5
9F
  8
DEFAULT
 10
52.52416981575124
 20
7.578664952183587
 30
0.0
 40
3.900000000000006
  0
CIRCLE
  5
A0
  8
DEFAULT
 10
37.39466554511176
 20
7.82357719226836
 30
0.0
 40
3.900000000000006
  0
CIRCLE
  5
A1
  8
DEFAULT
 10
22.38989074050272
 20
7.71336489623998
 30
0.0
 40
3.900000000000006
  0
CIRCLE
  5
A2
  8
DEFAULT
 10
7.537362011801918
 20
7.820703429085825
 30
0.0
 40
3.900000000000006
  0
CIRCLE
  5
A3
  8
DEFAULT
 10
52.52416981575124
 20
7.578664952183587
 30
0.0
 40
7.399999999999999
  0
CIRCLE
  5
A4
  8
DEFAULT
 10
52.52416981575126
 20
7.578664952183615
 30
0.0
 40
6.399999999999991
  0
CIRCLE
  5
A5
  8
DEFAULT
 10
37.39466554511176
 20
7.823577192268388
 30
0.0
 40
7.399999999999999
  0
CIRCLE
  5
A6
  8
DEFAULT
 10
37.39466554511176
 20
7.823577192268402
 30
0.0
 40
6.399999999999991
  0
CIRCLE
  5
A7
  8
DEFAULT
 10
22.38989074050272
 20
7.713364896240009
 30
0.0
 40
7.399999999999999
  0
CIRCLE
  5
A8
  8
DEFAULT
 10
22.38989074050272
 20
7.713364896240023
 30
0.0
 40
6.399999999999991
  0
CIRCLE
  5
A9
  8
DEFAULT
 10
7.537362011801918
 20
7.820703429085853
 30
0.0
 40
7.399999999999999
  0
CIRCLE
  5
AA
  8
DEFAULT
 10
7.537362011801918
 20
7.820703429085867
 30
0.0
 40
6.399999999999991
  0
CIRCLE
  5
AB
  8
DEFAULT
 10
45.38032023135736
 20
20.29546685449925
 30
0.0
 40
6.400000000000006
  0
CIRCLE
  5
AC
  8
DEFAULT
 10
45.38032023135736
 20
20.29546685449928
 30
0.0
 40
3.900000000000006
  0
CIRCLE
  5
AD
  8
DEFAULT
 10
30.77668260807417
 20
19.95930659758655
 30
0.0
 40
6.400000000000006
  0
CIRCLE
  5
AE
  8
DEFAULT
 10
30.77668260807417
 20
19.95930659758658
 30
0.0
 40
3.900000000000006
  0
CIRCLE
  5
AF
  8
DEFAULT
 10
15.12011538698766
 20
19.95930659758655
 30
0.0
 40
6.400000000000006
  0
CIRCLE
  5
B0
  8
DEFAULT
 10
15.12011538698766
 20
19.95930659758658
 30
0.0
 40
3.900000000000006
  0
CIRCLE
  5
B1
  8
DEFAULT
 10
52.52416981575124
 20
32.42133504781641
 30
0.0
 40
3.900000000000006
  0
CIRCLE
  5
B2
  8
DEFAULT
 10
37.39466554511176
 20
32.17642280773164
 30
0.0
 40
3.900000000000006
  0
CIRCLE
  5
B3
  8
DEFAULT
 10
22.38989074050272
 20
32.28663510376002
 30
0.0
 40
3.900000000000006
  0
CIRCLE
  5
B4
  8
DEFAULT
 10
7.537362011801918
 20
32.17929657091418
 30
0.0
 40
3.900000000000006
  0
CIRCLE
  5
B5
  8
DEFAULT
 10
52.52416981575124
 20
32.42133504781641
 30
0.0
 40
7.399999999999999
  0
CIRCLE
  5
B6
  8
DEFAULT
 10
52.52416981575126
 20
32.4213350478164
 30
0.0
 40
6.399999999999991
  0
CIRCLE
  5
B7
  8
DEFAULT
 10
37.39466554511176
 20
32.17642280773161
 30
0.0
 40
7.399999999999999
  0
CIRCLE
  5
B8
  8
DEFAULT
 10
37.39466554511176
 20
32.1764228077316
 30
0.0
 40
6.399999999999991
  0
CIRCLE
  5
B9
  8
DEFAULT
 10
22.38989074050272
 20
32.28663510375999
 30
0.0
 40
7.399999999999999
  0
CIRCLE
  5
BA
  8
DEFAULT
 10
22.38989074050272
 20
32.28663510375998
 30
0.0
 40
6.399999999999991
  0
CIRCLE
  5
BB
  8
DEFAULT
 10
7.537362011801918
 20
32.17929657091415
 30
0.0
 40
7.399999999999999
  0
CIRCLE
  5
BC
  8
DEFAULT
 10
7.537362011801918
 20
32.17929657091413
 30
0.0
 40
6.399999999999991
  0
CIRCLE
  5
BD
  8
DEFAULT
 10
7.532186378659333
 20
47.62371699881041
 30
0.0
 40
3.900000000000006
  0
CIRCLE
  5
BE
  8
DEFAULT
 10
7.532186378659333
 20
47.62371699881039
 30
0.0
 40
4.900000000000006
  0
CIRCLE
  5
BF
  8
DEFAULT
 10
22.44684840340949
 20
47.84872696663396
 30
0.0
 40
3.900000000000006
  0
CIRCLE
  5
C0
  8
DEFAULT
 10
22.44684840340949
 20
47.84872696663395
 30
0.0
 40
4.900000000000006
  0
CIRCLE
  5
C1
  8
DEFAULT
 10
37.29892872087112
 20
48.1722477296197
 30
0.0
 40
3.900000000000006
  0
CIRCLE
  5
C2
  8
DEFAULT
 10
37.29892872087112
 20
48.17224772961968
 30
0.0
 40
4.900000000000006
  0
CIRCLE
  5
C3
  8
DEFAULT
 10
52.3751027999399
 20
48.30035046485209
 30
0.0
 40
3.900000000000006
  0
CIRCLE
  5
C4
  8
DEFAULT
 10
52.3751027999399
 20
48.30035046485207
 30
0.0
 40
4.900000000000006
  0
CIRCLE
  5
C5
  8
DEFAULT
 10
52.58262179742644
 20
72.67352835282323
 30
0.0
 40
3.900000000000006
  0
CIRCLE
  5
C6
  8
DEFAULT
 10
52.58262179742644
 20
72.67352835282321
 30
0.0
 40
4.900000000000006
  0
CIRCLE
  5
C7
  8
DEFAULT
 10
37.54353580448566
 20
72.77543500337465
 30
0.0
 40
3.900000000000006
  0
CIRCLE
  5
C8
  8
DEFAULT
 10
37.54353580448566
 20
72.77543500337464
 30
0.0
 40
4.900000000000006
  0
CIRCLE
  5
C9
  8
DEFAULT
 10
22.68666981175977
 20
72.15730003287769
 30
0.0
 40
3.900000000000006
  0
CIRCLE
  5
CA
  8
DEFAULT
 10
22.68666981175977
 20
72.15730003287767
 30
0.0
 40
4.900000000000006
  0
CIRCLE
  5
CB
  8
DEFAULT
 10
7.776793462273872
 20
72.22690427256536
 30
0.0
 40
3.900000000000006
  0
CIRCLE
  5
CC
  8
DEFAULT
 10
7.776793462273872
 20
72.22690427256535
 30
0.0
 40
4.900000000000006
  0
CIRCLE
  5
CD
  8
DEFAULT
 10
54.74287345540822
 20
60.45411251526639
 30
0.0
 40
4.900000000000006
  0
CIRCLE
  5
CE
  8
DEFAULT
 10
54.74287345540822
 20
60.4541125152664
 30
0.0
 40
3.900000000000006
  0
CIRCLE
  5
CF
  8
DEFAULT
 10
44.63479076781857
 20
58.44770407566409
 30
0.0
 40
3.900000000000006
  0
CIRCLE
  5
D0
  8
DEFAULT
 10
44.63479076781857
 20
58.44770407566408
 30
0.0
 40
4.900000000000006
  0
CIRCLE
  5
D1
  8
DEFAULT
 10
34.72991276368421
 20
60.4625100722464
 30
0.0
 40
3.900000000000006
  0
CIRCLE
  5
D2
  8
DEFAULT
 10
34.72991276368421
 20
60.46251007224639
 30
0.0
 40
4.900000000000006
  0
CIRCLE
  5
D3
  8
DEFAULT
 10
24.80765722672405
 20
59.91789721524259
 30
0.0
 40
3.900000000000006
  0
CIRCLE
  5
D4
  8
DEFAULT
 10
24.80765722672405
 20
59.91789721524258
 30
0.0
 40
4.900000000000006
  0
CIRCLE
  5
D5
  8
DEFAULT
 10
15.13050071013188
 20
57.85893494805293
 30
0.0
 40
3.900000000000006
  0
CIRCLE
  5
D6
  8
DEFAULT
 10
15.13050071013188
 20
57.85893494805292
 30
0.0
 40
4.900000000000006
  0
CIRCLE
  5
D7
  8
DEFAULT
 10
22.68666981175977
 20
72.15730003287766
 30
0.0
 40
6.399999999999991
  0
CIRCLE
  5
D8
  8
DEFAULT
 10
22.68666981175977
 20
72.15730003287767
 30
0.0
 40
7.399999999999999
  0
CIRCLE
  5
D9
  8
DEFAULT
 10
22.44684840340949
 20
47.84872696663395
 30
0.0
 40
6.399999999999991
  0
CIRCLE
  5
DA
  8
DEFAULT
 10
22.44684840340946
 20
47.84872696663398
 30
0.0
 40
7.399999999999999
  0
CIRCLE
  5
DB
  8
DEFAULT
 10
7.776793462273872
 20
72.22690427256535
 30
0.0
 40
6.399999999999991
  0
CIRCLE
  5
DC
  8
DEFAULT
 10
7.776793462273872
 20
72.22690427256536
 30
0.0
 40
7.399999999999999
  0
CIRCLE
  5
DD
  8
DEFAULT
 10
7.532186378659333
 20
47.62371699881039
 30
0.0
 40
6.399999999999991
  0
CIRCLE
  5
DE
  8
DEFAULT
 10
7.532186378659304
 20
47.62371699881041
 30
0.0
 40
7.399999999999999
  0
CIRCLE
  5
DF
  8
DEFAULT
 10
52.3751027999399
 20
48.30035046485207
 30
0.0
 40
6.399999999999991
  0
CIRCLE
  5
E0
  8
DEFAULT
 10
52.3751027999399
 20
48.30035046485209
 30
0.0
 40
7.399999999999999
  0
CIRCLE
  5
E1
  8
DEFAULT
 10
37.29892872087112
 20
48.17224772961968
 30
0.0
 40
6.399999999999991
  0
CIRCLE
  5
E2
  8
DEFAULT
 10
37.29892872087112
 20
48.1722477296197
 30
0.0
 40
7.399999999999999
  0
CIRCLE
  5
E3
  8
DEFAULT
 10
52.58262179742644
 20
72.67352835282321
 30
0.0
 40
6.399999999999991
  0
CIRCLE
  5
E4
  8
DEFAULT
 10
52.58262179742644
 20
72.67352835282323
 30
0.0
 40
7.399999999999999
  0
CIRCLE
  5
E5
  8
DEFAULT
 10
37.54353580448566
 20
72.77543500337464
 30
0.0
 40
6.399999999999991
  0
CIRCLE
  5
E6
  8
DEFAULT
 10
37.54353580448566
 20
72.77543500337465
 30
0.0
 40
7.399999999999999
  0
CIRCLE
  5
E7
  8
DEFAULT
 10
5.454415047152224
 20
60.02219070483477
 30
0.0
 40
3.900000000000006
  0
CIRCLE
  5
E8
  8
DEFAULT
 10
5.454415047152224
 20
60.02219070483476
 30
0.0
 40
4.900000000000006
  0
LINE
  5
E9
  8
DEFAULT
 10
120.0
 20
0.0
 30
0.0
 11
0.0
 21
0.0
 31
0.0
  0
LINE
  5
EA
  8
DEFAULT
 10
0.0
 20
0.0
 30
0.0
 11
0.0
 21
80.0
 31
0.0
  0
LINE
  5
EB
  8
DEFAULT
 10
0.0
 20
80.0
 30
0.0
 11
120.0
 21
80.0
 31
0.0
  0
LINE
  5
EC
  8
DEFAULT
 10
120.0
 20
80.0
 30
0.0
 11
120.0
 21
0.0
 31
0.0
  0
ENDSEC
  0
EOF
